<svg width="1200" height="200" viewBox="0 0 1200 200" fill="none" xmlns="http://www.w3.org/2000/svg">
<path d="M341.848 129.274V137.626H293.08V70.426H340.504V78.778H302.68V99.418H336.376V107.578H302.68V129.274H341.848ZM383.217 86.266C389.681 86.266 394.801 88.154 398.577 91.93C402.417 95.642 404.337 101.114 404.337 108.346V137.626H395.121V109.402C395.121 104.474 393.937 100.762 391.569 98.266C389.201 95.77 385.809 94.522 381.393 94.522C376.401 94.522 372.465 95.994 369.585 98.938C366.705 101.818 365.265 105.978 365.265 111.418V137.626H356.049V86.746H364.881V94.426C366.737 91.802 369.233 89.786 372.369 88.378C375.569 86.97 379.185 86.266 383.217 86.266ZM435.984 138.202C431.824 138.202 427.824 137.658 423.984 136.57C420.144 135.418 417.136 133.978 414.96 132.25L418.8 124.954C421.04 126.554 423.76 127.834 426.96 128.794C430.16 129.754 433.392 130.234 436.656 130.234C444.72 130.234 448.752 127.93 448.752 123.322C448.752 121.786 448.208 120.57 447.12 119.674C446.032 118.778 444.656 118.138 442.992 117.754C441.392 117.306 439.088 116.826 436.08 116.314C431.984 115.674 428.624 114.938 426 114.106C423.44 113.274 421.232 111.866 419.376 109.882C417.52 107.898 416.592 105.114 416.592 101.53C416.592 96.922 418.512 93.242 422.352 90.49C426.192 87.674 431.344 86.266 437.808 86.266C441.2 86.266 444.592 86.682 447.984 87.514C451.376 88.346 454.16 89.466 456.336 90.874L452.4 98.17C448.24 95.482 443.344 94.138 437.712 94.138C433.808 94.138 430.832 94.778 428.784 96.058C426.736 97.338 425.712 99.034 425.712 101.146C425.712 102.81 426.288 104.122 427.44 105.082C428.592 106.042 430 106.746 431.664 107.194C433.392 107.642 435.792 108.154 438.864 108.73C442.96 109.434 446.256 110.202 448.752 111.034C451.312 111.802 453.488 113.146 455.28 115.066C457.072 116.986 457.968 119.674 457.968 123.13C457.968 127.738 455.984 131.418 452.016 134.17C448.112 136.858 442.768 138.202 435.984 138.202ZM515.47 112.474C515.47 113.178 515.406 114.106 515.278 115.258H473.998C474.574 119.738 476.526 123.354 479.854 126.106C483.246 128.794 487.438 130.138 492.43 130.138C498.51 130.138 503.406 128.09 507.118 123.994L512.206 129.946C509.902 132.634 507.022 134.682 503.566 136.09C500.174 137.498 496.366 138.202 492.142 138.202C486.766 138.202 481.998 137.114 477.838 134.938C473.678 132.698 470.446 129.594 468.142 125.626C465.902 121.658 464.782 117.178 464.782 112.186C464.782 107.258 465.87 102.81 468.046 98.842C470.286 94.874 473.326 91.802 477.166 89.626C481.07 87.386 485.454 86.266 490.318 86.266C495.182 86.266 499.502 87.386 503.278 89.626C507.118 91.802 510.094 94.874 512.206 98.842C514.382 102.81 515.47 107.354 515.47 112.474ZM490.318 94.042C485.902 94.042 482.19 95.386 479.182 98.074C476.238 100.762 474.51 104.282 473.998 108.634H506.638C506.126 104.346 504.366 100.858 501.358 98.17C498.414 95.418 494.734 94.042 490.318 94.042ZM591.915 86.266C598.315 86.266 603.371 88.122 607.083 91.834C610.859 95.546 612.747 101.05 612.747 108.346V137.626H603.531V109.402C603.531 104.474 602.379 100.762 600.075 98.266C597.835 95.77 594.603 94.522 590.379 94.522C585.707 94.522 581.995 95.994 579.243 98.938C576.491 101.818 575.115 105.978 575.115 111.418V137.626H565.899V109.402C565.899 104.474 564.747 100.762 562.443 98.266C560.203 95.77 556.971 94.522 552.747 94.522C548.075 94.522 544.363 95.994 541.611 98.938C538.859 101.818 537.483 105.978 537.483 111.418V137.626H528.267V86.746H537.099V94.33C538.955 91.706 541.387 89.722 544.395 88.378C547.403 86.97 550.827 86.266 554.667 86.266C558.635 86.266 562.155 87.066 565.227 88.666C568.299 90.266 570.667 92.602 572.331 95.674C574.251 92.73 576.907 90.426 580.299 88.762C583.755 87.098 587.627 86.266 591.915 86.266ZM656.681 86.266C661.609 86.266 666.025 87.354 669.929 89.53C673.833 91.706 676.873 94.746 679.049 98.65C681.289 102.554 682.409 107.066 682.409 112.186C682.409 117.306 681.289 121.85 679.049 125.818C676.873 129.722 673.833 132.762 669.929 134.938C666.025 137.114 661.609 138.202 656.681 138.202C652.905 138.202 649.449 137.466 646.313 135.994C643.177 134.522 640.585 132.378 638.537 129.562V137.626H629.705V66.394H638.921V94.426C640.969 91.738 643.529 89.722 646.601 88.378C649.673 86.97 653.033 86.266 656.681 86.266ZM655.913 130.138C659.177 130.138 662.089 129.402 664.649 127.93C667.273 126.394 669.321 124.282 670.793 121.594C672.329 118.842 673.097 115.706 673.097 112.186C673.097 108.666 672.329 105.562 670.793 102.874C669.321 100.122 667.273 98.01 664.649 96.538C662.089 95.066 659.177 94.33 655.913 94.33C652.713 94.33 649.801 95.066 647.177 96.538C644.553 98.01 642.505 100.122 641.033 102.874C639.561 105.562 638.825 108.666 638.825 112.186C638.825 115.706 639.561 118.842 641.033 121.594C642.505 124.282 644.553 126.394 647.177 127.93C649.801 129.402 652.713 130.138 655.913 130.138ZM695.142 66.394H704.358V137.626H695.142V66.394ZM767.939 112.474C767.939 113.178 767.875 114.106 767.747 115.258H726.467C727.043 119.738 728.995 123.354 732.323 126.106C735.715 128.794 739.907 130.138 744.899 130.138C750.979 130.138 755.875 128.09 759.587 123.994L764.675 129.946C762.371 132.634 759.491 134.682 756.035 136.09C752.643 137.498 748.835 138.202 744.611 138.202C739.235 138.202 734.467 137.114 730.307 134.938C726.147 132.698 722.915 129.594 720.611 125.626C718.371 121.658 717.251 117.178 717.251 112.186C717.251 107.258 718.339 102.81 720.515 98.842C722.755 94.874 725.795 91.802 729.635 89.626C733.539 87.386 737.923 86.266 742.787 86.266C747.651 86.266 751.971 87.386 755.747 89.626C759.587 91.802 762.563 94.874 764.675 98.842C766.851 102.81 767.939 107.354 767.939 112.474ZM742.787 94.042C738.371 94.042 734.659 95.386 731.651 98.074C728.707 100.762 726.979 104.282 726.467 108.634H759.107C758.595 104.346 756.835 100.858 753.827 98.17C750.883 95.418 747.203 94.042 742.787 94.042Z" fill="black"/>
<mask id="mask0_1157_6683" style="mask-type:alpha" maskUnits="userSpaceOnUse" x="804" y="38" width="113" height="124">
<path d="M839.313 55.1361L859.828 66.7936C860.287 67.0583 860.807 67.1978 861.337 67.1978C861.866 67.1978 862.386 67.0583 862.845 66.7936L882.449 55.3895C882.905 55.1239 883.283 54.7435 883.546 54.2861C883.809 53.8287 883.947 53.3104 883.947 52.7829C883.947 52.2554 883.809 51.7371 883.546 51.2797C883.283 50.8223 882.905 50.4419 882.449 50.1763L862.224 38.4042C861.765 38.1394 861.245 38 860.715 38C860.186 38 859.665 38.1394 859.207 38.4042L839.295 49.9168C838.839 50.1836 838.46 50.5656 838.198 51.0245C837.936 51.4834 837.799 52.0031 837.801 52.5317C837.803 53.0602 837.943 53.579 838.209 54.0361C838.474 54.4932 838.855 54.8725 839.313 55.1361V55.1361Z" fill="white"/>
<path d="M873.1 92.2761L851.698 80.0576C851.245 79.7986 850.732 79.6615 850.21 79.6597C849.689 79.658 849.175 79.7916 848.721 80.0475C848.266 80.3035 847.885 80.673 847.616 81.12C847.347 81.567 847.198 82.0762 847.184 82.5978L847.234 119.857C847.221 120.367 847.078 120.865 846.82 121.306C846.562 121.746 846.196 122.113 845.757 122.374C845.319 122.634 844.821 122.779 844.311 122.795C843.801 122.81 843.295 122.696 842.841 122.464L834.997 118.427C834.495 118.17 834.076 117.778 833.786 117.295C833.496 116.812 833.347 116.257 833.356 115.694L833.041 71.043C833.05 70.5036 832.914 69.9717 832.648 69.5027C832.382 69.0336 831.994 68.6445 831.527 68.376L820.062 61.8172C819.611 61.5635 819.102 61.4302 818.584 61.4302C818.066 61.4302 817.557 61.5635 817.106 61.8172L805.557 68.201C805.085 68.4621 804.691 68.845 804.417 69.3098C804.144 69.7747 803.999 70.3044 804 70.8438L804 127.073C804 127.589 804.132 128.096 804.383 128.546C804.635 128.996 804.997 129.374 805.436 129.644L858.288 161.497C858.739 161.774 859.255 161.928 859.785 161.943C860.314 161.958 860.839 161.833 861.305 161.581L873.191 155.167C873.664 154.913 874.06 154.537 874.339 154.079C874.618 153.621 874.769 153.097 874.778 152.561L874.626 94.9431C874.634 94.4026 874.497 93.8699 874.228 93.4007C873.96 92.9315 873.57 92.5431 873.1 92.2761Z" fill="white"/>
<path d="M915.041 69.0737L903.347 62.2856C902.968 62.0674 902.538 61.9526 902.101 61.9526C901.664 61.9526 901.234 62.0674 900.855 62.2856L880.551 73.8766C880.168 74.0942 879.85 74.4093 879.629 74.7898C879.408 75.1703 879.291 75.6026 879.291 76.0428C879.291 76.483 879.408 76.9153 879.629 77.2958C879.85 77.6763 880.168 77.9913 880.551 78.209L888.697 82.843L888.739 142.536C888.736 142.969 888.846 143.394 889.058 143.771C889.27 144.149 889.577 144.464 889.947 144.687C890.318 144.91 890.74 145.032 891.173 145.042C891.605 145.052 892.033 144.95 892.414 144.744L914.968 132.574C915.364 132.361 915.694 132.045 915.925 131.659C916.155 131.274 916.277 130.833 916.278 130.384V71.2519C916.281 70.8121 916.169 70.379 915.952 69.9965C915.735 69.6141 915.42 69.2957 915.041 69.0737V69.0737Z" fill="white"/>
</mask>
<g mask="url(#mask0_1157_6683)">
<rect x="803" y="38" width="113" height="124" fill="url(#paint0_linear_1157_6683)"/>
</g>
<defs>
<linearGradient id="paint0_linear_1157_6683" x1="916" y1="54" x2="803" y2="130.5" gradientUnits="userSpaceOnUse">
<stop stop-color="#03ECED"/>
<stop offset="1" stop-color="#1EC1FE"/>
</linearGradient>
</defs>
</svg>
